<svg id="svg" version="1.1" xmlns="http://www.w3.org/2000/svg" xmlns:xlink="http://www.w3.org/1999/xlink" width="400" height="400" viewBox="0, 0, 400,400"><g id="svgg"><path id="path0" d="M380.000 19.262 C 378.350 19.700,376.280 20.234,375.400 20.448 C 374.520 20.662,373.125 21.008,372.300 21.218 C 371.475 21.428,370.080 21.780,369.200 22.000 C 368.320 22.220,366.880 22.580,366.000 22.800 C 365.120 23.020,363.635 23.388,362.700 23.618 C 359.263 24.464,358.133 24.755,355.000 25.600 C 353.240 26.075,351.170 26.612,350.400 26.794 C 349.630 26.976,342.880 28.693,335.400 30.610 C 327.920 32.527,321.170 34.246,320.400 34.430 C 319.630 34.613,318.280 34.943,317.400 35.163 C 314.589 35.866,312.441 36.390,310.900 36.750 C 310.075 36.942,309.085 37.232,308.700 37.393 C 308.037 37.670,308.000 41.139,308.000 102.259 C 308.000 164.944,307.978 166.875,307.239 168.316 C 305.974 170.782,303.175 172.800,301.020 172.800 L 300.000 172.800 300.000 182.400 L 300.000 192.000 300.900 192.011 C 304.288 192.054,308.000 196.158,308.000 199.861 C 308.000 204.016,304.583 208.000,301.020 208.000 L 300.000 208.000 300.000 217.600 L 300.000 227.200 300.988 227.200 C 303.050 227.200,305.775 229.190,307.166 231.712 L 308.000 233.224 308.000 297.769 C 308.000 358.863,308.037 362.330,308.700 362.607 C 309.085 362.768,310.030 363.049,310.800 363.232 C 311.570 363.414,312.965 363.752,313.900 363.982 C 314.835 364.212,316.275 364.562,317.100 364.760 C 317.925 364.958,325.440 366.863,333.800 368.994 C 342.160 371.124,349.630 373.018,350.400 373.202 C 351.170 373.386,353.240 373.925,355.000 374.400 C 358.133 375.245,359.263 375.536,362.700 376.382 C 363.635 376.612,365.120 376.980,366.000 377.200 C 366.880 377.420,368.320 377.780,369.200 378.000 C 370.080 378.220,371.520 378.580,372.400 378.800 C 373.280 379.020,374.675 379.366,375.500 379.568 C 376.325 379.771,378.440 380.309,380.200 380.764 C 381.960 381.218,383.535 381.593,383.700 381.595 C 383.865 381.598,384.000 299.880,384.000 200.000 C 384.000 54.970,383.899 18.406,383.500 18.432 C 383.225 18.450,381.650 18.823,380.000 19.262 M133.268 57.100 C 157.615 57.157,197.575 57.157,222.068 57.100 C 246.561 57.043,226.640 56.996,177.800 56.996 C 128.960 56.996,108.921 57.043,133.268 57.100 M133.668 198.300 C 158.015 198.357,197.975 198.357,222.468 198.300 C 246.961 198.243,227.040 198.196,178.200 198.196 C 129.360 198.196,109.321 198.243,133.668 198.300 M293.114 204.230 C 293.592 205.113,295.939 207.428,296.096 207.171 C 296.153 207.077,295.412 206.204,294.449 205.230 C 293.485 204.257,292.885 203.807,293.114 204.230 M294.006 229.794 C 293.263 230.561,292.732 231.250,292.827 231.325 C 292.922 231.400,293.606 230.773,294.346 229.931 C 296.029 228.018,295.812 227.931,294.006 229.794 M131.105 234.683 C 131.602 234.779,132.322 234.775,132.705 234.675 C 133.087 234.575,132.680 234.496,131.800 234.501 C 130.920 234.505,130.607 234.587,131.105 234.683 M123.599 247.081 C 123.489 250.426,123.540 253.022,123.711 252.850 C 123.883 252.678,123.972 249.941,123.910 246.769 L 123.797 241.000 123.599 247.081 M140.000 260.551 C 140.000 264.866,137.370 269.200,134.752 269.200 C 134.364 269.200,133.936 269.380,133.800 269.600 C 133.637 269.863,116.796 270.000,84.576 270.000 L 35.600 270.000 35.600 282.000 L 35.600 294.000 83.727 294.000 C 136.242 294.000,134.421 293.923,137.199 296.260 C 139.260 297.995,140.000 299.929,140.000 303.584 C 140.000 307.052,140.087 307.183,141.600 306.000 C 142.150 305.570,142.825 305.214,143.100 305.209 C 143.375 305.204,143.600 305.041,143.600 304.847 C 143.600 304.652,143.915 304.393,144.300 304.271 C 144.987 304.054,147.206 302.795,147.600 302.399 C 147.710 302.289,148.340 301.929,149.000 301.600 C 149.660 301.271,150.290 300.911,150.400 300.801 C 150.651 300.549,152.127 299.706,154.200 298.630 C 155.080 298.174,155.890 297.695,156.000 297.567 C 156.197 297.336,160.284 295.053,163.400 293.432 C 164.280 292.974,165.090 292.510,165.200 292.400 C 165.596 292.004,167.815 290.746,168.500 290.529 C 168.885 290.407,169.200 290.148,169.200 289.953 C 169.200 289.759,169.478 289.600,169.817 289.600 C 170.156 289.600,170.820 289.240,171.292 288.800 C 171.764 288.360,172.387 288.000,172.675 288.000 C 172.964 288.000,173.200 287.820,173.200 287.600 C 173.200 287.380,173.560 287.200,174.000 287.200 C 174.440 287.200,174.800 287.041,174.800 286.847 C 174.800 286.652,175.115 286.393,175.500 286.271 C 176.187 286.054,178.406 284.795,178.800 284.399 C 178.910 284.289,179.450 283.964,180.000 283.677 C 180.550 283.390,181.349 282.895,181.776 282.578 C 182.644 281.933,182.335 281.541,180.000 280.323 C 179.450 280.036,178.910 279.711,178.800 279.601 C 178.406 279.205,176.187 277.946,175.500 277.729 C 175.115 277.607,174.800 277.348,174.800 277.153 C 174.800 276.959,174.440 276.800,174.000 276.800 C 173.560 276.800,173.200 276.620,173.200 276.400 C 173.200 276.180,172.964 276.000,172.675 276.000 C 172.387 276.000,171.764 275.640,171.292 275.200 C 170.820 274.760,170.156 274.400,169.817 274.400 C 169.478 274.400,169.200 274.264,169.200 274.098 C 169.200 273.931,168.618 273.538,167.906 273.222 C 167.194 272.907,165.299 271.873,163.694 270.925 C 162.090 269.976,160.602 269.200,160.388 269.200 C 160.175 269.200,159.997 269.065,159.994 268.900 C 159.990 268.735,159.090 268.160,157.994 267.621 C 156.897 267.083,156.000 266.498,156.000 266.321 C 156.000 266.145,155.640 266.000,155.200 266.000 C 154.760 266.000,154.400 265.841,154.400 265.647 C 154.400 265.452,154.085 265.193,153.700 265.071 C 153.013 264.854,150.794 263.595,150.400 263.199 C 150.290 263.089,149.660 262.729,149.000 262.400 C 148.340 262.071,147.710 261.711,147.600 261.601 C 147.206 261.205,144.987 259.946,144.300 259.729 C 143.915 259.607,143.600 259.348,143.600 259.153 C 143.600 258.959,143.317 258.800,142.971 258.800 C 142.626 258.800,142.073 258.530,141.743 258.200 C 140.421 256.879,140.000 257.447,140.000 260.551 M205.422 287.575 L 203.844 289.400 205.603 287.714 C 206.570 286.786,207.280 285.965,207.180 285.888 C 207.081 285.812,206.290 286.571,205.422 287.575 M123.599 316.919 L 123.797 323.000 123.910 317.231 C 123.972 314.059,123.883 311.322,123.711 311.150 C 123.540 310.978,123.489 313.574,123.599 316.919 M131.105 329.483 C 131.602 329.579,132.322 329.575,132.705 329.475 C 133.087 329.375,132.680 329.296,131.800 329.301 C 130.920 329.305,130.607 329.387,131.105 329.483 " stroke="none" fill="#edc775" fill-rule="evenodd"></path><path id="path1" d="M386.500 0.293 C 385.565 0.377,384.800 0.616,384.800 0.823 C 384.800 1.030,384.080 1.200,383.200 1.200 C 382.320 1.200,381.600 1.380,381.600 1.600 C 381.600 1.820,380.880 2.000,380.000 2.000 C 379.120 2.000,378.400 2.180,378.400 2.400 C 378.400 2.620,377.770 2.800,377.000 2.800 C 376.230 2.800,375.600 2.980,375.600 3.200 C 375.600 3.420,374.880 3.600,374.000 3.600 C 373.120 3.600,372.400 3.780,372.400 4.000 C 372.400 4.220,371.680 4.400,370.800 4.400 C 369.920 4.400,369.200 4.580,369.200 4.800 C 369.200 5.020,368.480 5.200,367.600 5.200 C 366.720 5.200,366.000 5.380,366.000 5.600 C 366.000 5.820,365.381 6.000,364.624 6.000 C 363.867 6.000,363.136 6.180,363.000 6.400 C 362.864 6.620,362.133 6.800,361.376 6.800 C 360.619 6.800,360.000 6.980,360.000 7.200 C 360.000 7.420,359.400 7.600,358.667 7.600 C 357.933 7.600,357.201 7.733,357.039 7.895 C 356.876 8.057,355.541 8.413,354.072 8.685 C 352.602 8.957,350.590 9.378,349.600 9.619 C 348.610 9.860,347.213 10.155,346.496 10.273 C 345.779 10.392,345.094 10.649,344.973 10.844 C 344.852 11.040,344.133 11.200,343.376 11.200 C 342.619 11.200,342.000 11.380,342.000 11.600 C 342.000 11.820,341.280 12.000,340.400 12.000 C 339.520 12.000,338.800 12.180,338.800 12.400 C 338.800 12.620,338.080 12.800,337.200 12.800 C 336.320 12.800,335.600 12.980,335.600 13.200 C 335.600 13.420,334.981 13.600,334.224 13.600 C 333.467 13.600,332.736 13.780,332.600 14.000 C 332.464 14.220,331.744 14.400,331.000 14.400 C 330.256 14.400,329.536 14.580,329.400 14.800 C 329.264 15.020,328.533 15.200,327.776 15.200 C 327.019 15.200,326.400 15.380,326.400 15.600 C 326.400 15.820,325.680 16.000,324.800 16.000 C 323.920 16.000,323.200 16.180,323.200 16.400 C 323.200 16.620,322.480 16.800,321.600 16.800 C 320.720 16.800,320.000 16.980,320.000 17.200 C 320.000 17.420,319.381 17.600,318.624 17.600 C 317.867 17.600,317.136 17.780,317.000 18.000 C 316.864 18.220,316.144 18.400,315.400 18.400 C 314.656 18.400,313.936 18.580,313.800 18.800 C 313.664 19.020,313.034 19.200,312.400 19.200 C 311.766 19.200,311.136 19.380,311.000 19.600 C 310.864 19.820,310.144 20.000,309.400 20.000 C 308.656 20.000,307.936 20.180,307.800 20.400 C 307.664 20.620,307.034 20.800,306.400 20.800 C 305.766 20.800,305.136 20.980,305.000 21.200 C 304.864 21.420,304.144 21.600,303.400 21.600 C 302.656 21.600,301.936 21.780,301.800 22.000 C 301.664 22.220,300.933 22.400,300.176 22.400 C 299.419 22.400,298.800 22.580,298.800 22.800 C 298.800 23.066,261.600 23.200,188.000 23.200 C 114.400 23.200,77.200 23.334,77.200 23.600 C 77.200 23.820,77.006 24.000,76.769 24.000 C 76.209 24.000,74.000 26.209,74.000 26.769 C 74.000 27.006,73.820 27.200,73.600 27.200 C 73.341 27.200,73.200 32.400,73.200 42.000 L 73.200 56.800 39.200 56.800 C 16.800 56.800,5.200 56.936,5.200 57.200 C 5.200 57.420,4.785 57.600,4.278 57.600 C 3.771 57.600,2.646 58.250,1.778 59.046 L 0.200 60.491 0.200 127.764 L 0.200 195.036 1.282 196.118 C 1.877 196.713,2.642 197.200,2.982 197.200 C 3.322 197.200,3.600 197.380,3.600 197.600 C 3.600 197.820,3.960 198.000,4.400 198.000 C 4.840 198.000,5.200 198.180,5.200 198.400 C 5.200 198.664,16.800 198.800,39.200 198.800 L 73.200 198.800 73.200 225.800 L 73.200 252.800 48.600 252.800 C 32.467 252.800,24.000 252.938,24.000 253.200 C 24.000 253.420,23.725 253.600,23.389 253.600 C 22.609 253.600,19.200 256.990,19.200 257.766 C 19.200 258.089,19.020 258.464,18.800 258.600 C 18.250 258.940,18.250 305.060,18.800 305.400 C 19.020 305.536,19.200 305.911,19.200 306.234 C 19.200 307.010,22.609 310.400,23.389 310.400 C 23.725 310.400,24.000 310.580,24.000 310.800 C 24.000 311.062,32.467 311.200,48.600 311.200 L 73.200 311.200 73.200 342.000 C 73.200 362.267,73.337 372.800,73.600 372.800 C 73.820 372.800,74.000 372.994,74.000 373.231 C 74.000 373.791,76.209 376.000,76.769 376.000 C 77.006 376.000,77.200 376.180,77.200 376.400 C 77.200 376.666,114.400 376.800,188.000 376.800 C 261.600 376.800,298.800 376.934,298.800 377.200 C 298.800 377.420,299.419 377.600,300.176 377.600 C 300.933 377.600,301.664 377.780,301.800 378.000 C 301.936 378.220,302.656 378.400,303.400 378.400 C 304.144 378.400,304.864 378.580,305.000 378.800 C 305.136 379.020,305.766 379.200,306.400 379.200 C 307.034 379.200,307.664 379.380,307.800 379.600 C 307.936 379.820,308.656 380.000,309.400 380.000 C 310.144 380.000,310.864 380.180,311.000 380.400 C 311.136 380.620,311.766 380.800,312.400 380.800 C 313.034 380.800,313.664 380.980,313.800 381.200 C 313.936 381.420,314.656 381.600,315.400 381.600 C 316.144 381.600,316.864 381.780,317.000 382.000 C 317.136 382.220,317.867 382.400,318.624 382.400 C 319.381 382.400,320.000 382.580,320.000 382.800 C 320.000 383.020,320.720 383.200,321.600 383.200 C 322.480 383.200,323.200 383.380,323.200 383.600 C 323.200 383.820,323.920 384.000,324.800 384.000 C 325.680 384.000,326.400 384.180,326.400 384.400 C 326.400 384.620,327.019 384.800,327.776 384.800 C 328.533 384.800,329.264 384.980,329.400 385.200 C 329.536 385.420,330.256 385.600,331.000 385.600 C 331.744 385.600,332.464 385.780,332.600 386.000 C 332.736 386.220,333.467 386.400,334.224 386.400 C 334.981 386.400,335.600 386.580,335.600 386.800 C 335.600 387.020,336.320 387.200,337.200 387.200 C 338.080 387.200,338.800 387.380,338.800 387.600 C 338.800 387.820,339.520 388.000,340.400 388.000 C 341.280 388.000,342.000 388.180,342.000 388.400 C 342.000 388.620,342.619 388.800,343.376 388.800 C 344.133 388.800,344.852 388.960,344.973 389.156 C 345.094 389.351,345.779 389.608,346.496 389.727 C 347.213 389.845,348.610 390.140,349.600 390.381 C 350.590 390.622,352.602 391.043,354.072 391.315 C 355.541 391.587,356.876 391.943,357.039 392.105 C 357.201 392.267,357.933 392.400,358.667 392.400 C 359.400 392.400,360.000 392.580,360.000 392.800 C 360.000 393.020,360.619 393.200,361.376 393.200 C 362.133 393.200,362.864 393.380,363.000 393.600 C 363.136 393.820,363.867 394.000,364.624 394.000 C 365.381 394.000,366.000 394.180,366.000 394.400 C 366.000 394.620,366.720 394.800,367.600 394.800 C 368.480 394.800,369.200 394.980,369.200 395.200 C 369.200 395.420,369.920 395.600,370.800 395.600 C 371.680 395.600,372.400 395.780,372.400 396.000 C 372.400 396.220,373.120 396.400,374.000 396.400 C 374.880 396.400,375.600 396.580,375.600 396.800 C 375.600 397.020,376.230 397.200,377.000 397.200 C 377.770 397.200,378.400 397.380,378.400 397.600 C 378.400 397.820,379.120 398.000,380.000 398.000 C 380.880 398.000,381.600 398.180,381.600 398.400 C 381.600 398.620,382.305 398.800,383.167 398.800 C 384.028 398.800,384.798 398.995,384.878 399.234 C 384.968 399.504,387.147 399.752,390.644 399.891 L 396.266 400.113 398.133 398.246 L 400.000 396.379 400.000 200.000 L 400.000 3.621 398.189 1.811 L 396.379 0.000 392.289 0.070 C 390.040 0.108,387.435 0.209,386.500 0.293 M384.400 200.000 C 384.400 373.869,384.368 382.000,383.692 382.000 C 383.302 382.000,378.667 380.898,373.392 379.550 C 368.116 378.203,363.125 376.943,362.300 376.750 C 359.599 376.120,357.847 375.676,354.600 374.800 C 352.840 374.325,350.725 373.771,349.900 373.568 C 349.075 373.366,347.680 373.020,346.800 372.800 C 345.920 372.580,344.525 372.236,343.700 372.035 C 342.875 371.834,338.600 370.741,334.200 369.606 C 329.800 368.472,322.150 366.537,317.200 365.308 C 312.250 364.078,308.068 362.876,307.906 362.636 C 307.744 362.396,307.606 333.310,307.597 298.000 C 307.583 236.586,307.551 233.730,306.848 232.183 C 304.240 226.442,296.147 226.258,293.356 231.877 C 292.627 233.346,292.593 235.652,292.400 297.200 L 292.200 361.000 190.600 361.000 L 89.000 361.000 88.890 336.400 C 88.829 322.870,88.877 311.395,88.997 310.900 L 89.215 310.000 106.034 310.000 C 116.863 310.000,123.128 310.147,123.626 310.414 C 124.342 310.797,124.400 311.310,124.400 317.234 C 124.400 321.971,124.547 323.921,124.964 324.720 C 126.881 328.388,131.909 329.971,135.388 328.000 C 136.165 327.560,137.430 326.840,138.200 326.400 C 138.970 325.960,140.230 325.240,141.000 324.800 C 143.380 323.440,144.798 322.622,150.962 319.052 C 154.242 317.154,156.968 315.600,157.022 315.600 C 157.075 315.600,158.303 314.880,159.752 314.000 C 161.200 313.120,162.496 312.400,162.631 312.400 C 162.766 312.400,163.354 312.061,163.938 311.647 C 164.522 311.233,165.675 310.513,166.500 310.047 C 167.325 309.581,168.630 308.840,169.400 308.400 C 170.170 307.960,171.430 307.240,172.200 306.800 C 174.616 305.419,176.034 304.598,182.123 301.051 C 185.381 299.153,188.107 297.600,188.182 297.600 C 188.257 297.600,189.503 296.880,190.952 296.000 C 192.400 295.120,193.769 294.400,193.993 294.400 C 194.217 294.400,194.400 294.241,194.400 294.047 C 194.400 293.852,194.715 293.590,195.100 293.464 C 195.485 293.338,196.610 292.752,197.600 292.161 C 198.590 291.570,199.973 290.762,200.674 290.365 C 205.687 287.524,207.600 285.207,207.600 281.977 C 207.600 280.608,206.261 277.556,205.274 276.675 C 204.566 276.044,198.070 272.000,197.763 272.000 C 197.666 272.000,196.400 271.280,194.952 270.400 C 193.503 269.520,192.255 268.800,192.177 268.800 C 192.099 268.800,191.082 268.232,189.918 267.538 C 188.753 266.844,186.090 265.293,184.000 264.092 C 181.910 262.892,179.615 261.570,178.900 261.155 C 178.185 260.740,176.994 260.057,176.253 259.637 C 175.513 259.217,173.694 258.137,172.212 257.237 C 170.731 256.337,169.461 255.600,169.391 255.600 C 169.321 255.600,167.674 254.675,165.732 253.544 C 163.789 252.413,159.860 250.143,157.000 248.499 C 150.875 244.979,149.983 244.461,147.600 243.039 C 146.610 242.448,145.485 241.862,145.100 241.736 C 144.715 241.610,144.400 241.348,144.400 241.153 C 144.400 240.959,144.228 240.800,144.018 240.800 C 143.807 240.800,142.682 240.231,141.518 239.536 C 132.777 234.317,130.354 233.934,126.685 237.190 C 124.629 239.014,124.400 239.977,124.400 246.812 C 124.400 251.640,124.273 253.207,123.854 253.555 C 123.461 253.881,118.485 253.979,106.154 253.904 L 89.000 253.800 89.000 225.800 L 89.000 197.800 178.618 197.600 C 278.015 197.378,269.046 197.626,271.335 195.033 C 273.283 192.827,273.200 195.811,273.200 127.800 C 273.200 59.266,273.310 62.972,271.201 60.292 C 269.066 57.579,277.446 57.822,178.400 57.600 L 89.000 57.400 89.000 48.200 L 89.000 39.000 190.600 39.000 L 292.200 39.000 292.400 102.800 C 292.613 170.855,292.516 167.777,294.527 169.939 C 297.540 173.178,302.440 173.175,305.425 169.931 C 307.724 167.433,307.600 171.315,307.606 102.081 C 307.609 66.727,307.744 37.604,307.906 37.364 C 308.068 37.124,312.250 35.922,317.200 34.692 C 322.150 33.463,329.800 31.528,334.200 30.394 C 342.289 28.308,343.551 27.988,346.800 27.200 C 349.956 26.435,351.325 26.083,354.600 25.200 C 358.168 24.238,359.756 23.835,362.400 23.222 C 363.390 22.992,368.250 21.747,373.200 20.454 C 378.150 19.161,382.695 18.080,383.300 18.051 L 384.400 18.000 384.400 200.000 M257.800 127.800 L 257.800 182.600 136.800 182.600 L 15.800 182.600 15.699 127.699 L 15.597 72.799 136.699 72.899 L 257.800 73.000 257.800 127.800 M36.600 89.681 C 35.000 90.237,32.857 92.273,32.052 94.000 C 31.254 95.714,30.830 155.420,31.588 159.516 C 32.142 162.516,33.502 164.478,35.762 165.540 C 38.132 166.654,65.528 166.890,68.093 165.819 C 73.515 163.553,74.216 156.248,69.366 152.546 L 67.864 151.400 57.432 151.200 L 47.000 151.000 46.892 143.342 L 46.783 135.685 56.092 135.509 C 63.717 135.365,65.621 135.214,66.621 134.677 C 71.703 131.945,72.177 124.783,67.482 121.674 C 65.865 120.602,65.842 120.600,56.431 120.400 L 47.000 120.200 47.000 112.400 L 47.000 104.600 57.400 104.400 C 68.642 104.184,68.656 104.181,70.723 101.826 C 74.195 97.872,73.005 92.300,68.207 90.045 C 66.165 89.085,39.205 88.774,36.600 89.681 M91.967 90.565 C 88.142 93.373,87.971 98.904,91.584 103.000 C 91.972 103.440,93.205 105.150,94.325 106.800 C 95.445 108.450,98.085 112.230,100.191 115.200 C 108.426 126.808,107.810 125.299,105.576 128.400 C 104.704 129.610,102.922 132.130,101.616 134.000 C 100.310 135.870,97.516 139.830,95.407 142.800 C 86.126 155.870,85.900 156.254,85.887 158.962 C 85.865 163.474,88.774 166.480,93.163 166.480 C 97.007 166.480,97.977 165.707,102.805 158.800 C 104.420 156.490,106.823 153.070,108.146 151.200 C 109.468 149.330,111.546 146.360,112.763 144.600 C 113.979 142.840,115.295 141.051,115.687 140.625 C 116.079 140.198,116.400 139.703,116.400 139.525 C 116.400 138.548,117.415 139.575,119.481 142.644 C 120.757 144.538,121.987 146.293,122.215 146.544 C 122.443 146.795,123.625 148.440,124.841 150.200 C 136.315 166.805,136.005 166.480,140.400 166.480 C 145.245 166.480,148.514 162.675,147.789 157.878 C 147.502 155.982,147.220 155.553,131.383 133.000 C 130.302 131.460,128.739 129.300,127.910 128.200 C 126.044 125.724,126.045 125.546,127.932 123.037 C 128.775 121.917,131.356 118.300,133.668 115.000 C 135.980 111.700,138.443 108.190,139.142 107.200 C 144.955 98.963,144.596 99.663,144.598 96.537 C 144.601 91.964,141.960 89.283,137.400 89.231 C 133.192 89.182,131.927 90.444,123.200 103.400 C 122.459 104.500,121.746 105.490,121.616 105.600 C 121.486 105.710,120.487 107.121,119.396 108.735 C 116.619 112.841,117.144 112.998,112.921 106.800 C 111.646 104.930,110.385 103.130,110.118 102.800 C 109.850 102.470,108.162 100.083,106.366 97.496 C 100.230 88.657,96.810 87.011,91.967 90.565 M164.761 90.053 C 160.646 92.440,160.720 91.669,160.875 130.000 L 161.000 161.000 161.970 162.693 C 165.538 168.923,174.152 167.460,175.932 160.323 C 176.594 157.668,176.596 98.108,175.934 95.241 C 174.757 90.142,169.120 87.525,164.761 90.053 M196.600 89.666 C 190.753 92.892,190.992 101.237,197.000 103.626 C 197.660 103.889,200.630 104.194,203.600 104.304 C 206.933 104.427,209.113 104.675,209.294 104.952 C 209.456 105.198,209.591 117.975,209.594 133.346 C 209.600 161.291,209.600 161.291,210.470 162.839 C 213.108 167.532,220.103 167.854,223.125 163.421 C 224.694 161.119,224.780 159.469,224.790 131.545 L 224.800 104.491 230.300 104.318 C 236.378 104.127,237.940 103.692,239.895 101.646 C 243.253 98.133,242.367 92.718,238.000 90.056 C 236.373 89.065,198.340 88.706,196.600 89.666 M297.605 192.956 C 294.164 194.051,291.790 198.364,292.782 201.720 C 294.535 207.656,301.397 209.508,305.425 205.131 C 310.798 199.293,305.180 190.547,297.605 192.956 M144.600 258.942 C 147.020 260.338,151.250 262.790,154.000 264.392 C 156.750 265.994,159.990 267.855,161.200 268.526 C 162.410 269.198,165.380 270.909,167.800 272.328 C 170.220 273.747,172.785 275.244,173.500 275.654 C 174.215 276.064,175.475 276.788,176.300 277.263 C 177.125 277.737,178.160 278.329,178.600 278.578 C 184.751 282.054,184.689 281.971,182.184 283.399 C 180.469 284.376,171.354 289.656,169.400 290.804 C 168.740 291.192,165.770 292.900,162.800 294.600 C 159.830 296.300,156.860 298.008,156.200 298.397 C 147.431 303.555,140.301 307.594,139.956 307.598 C 139.822 307.599,139.618 306.082,139.502 304.227 C 139.254 300.252,138.453 298.372,136.263 296.626 L 134.726 295.400 84.863 295.195 C 57.438 295.082,34.952 294.947,34.894 294.895 C 34.836 294.843,34.836 289.085,34.894 282.100 L 35.000 269.400 84.400 269.200 C 138.869 268.979,134.800 269.185,137.251 266.536 C 138.915 264.738,139.240 263.784,139.487 259.975 C 139.614 258.009,139.827 256.401,139.959 256.402 C 140.092 256.403,142.180 257.546,144.600 258.942 " stroke="none" fill="#040404" fill-rule="evenodd"></path><path id="path2" d="M89.200 48.000 L 89.200 56.800 177.394 56.800 C 274.609 56.800,268.157 56.621,271.005 59.400 C 273.793 62.120,273.600 57.027,273.600 127.807 L 273.600 192.376 272.755 193.880 C 271.816 195.552,270.792 196.550,269.000 197.538 C 267.895 198.148,260.716 198.208,178.497 198.303 L 89.194 198.407 89.297 225.703 L 89.400 253.000 106.400 253.000 L 123.400 253.000 123.601 246.400 C 123.784 240.365,123.879 239.691,124.706 238.532 C 127.935 234.000,132.006 233.339,137.394 236.470 C 140.618 238.343,142.225 239.271,144.200 240.400 C 144.970 240.840,146.185 241.535,146.900 241.943 C 147.615 242.352,149.010 243.170,150.000 243.761 C 150.990 244.352,152.115 244.938,152.500 245.064 C 152.885 245.190,153.200 245.452,153.200 245.647 C 153.200 245.841,153.372 246.000,153.582 246.000 C 153.793 246.000,154.918 246.567,156.082 247.260 C 157.247 247.952,161.170 250.222,164.800 252.304 C 168.430 254.386,171.960 256.412,172.645 256.807 C 173.330 257.202,174.320 257.767,174.845 258.062 C 175.370 258.358,175.890 258.690,176.000 258.801 C 176.110 258.911,176.740 259.265,177.400 259.586 C 178.060 259.908,179.050 260.465,179.600 260.825 C 180.150 261.184,181.590 262.023,182.800 262.688 C 184.010 263.354,188.330 265.835,192.400 268.202 C 196.470 270.569,200.465 272.887,201.278 273.353 C 208.692 277.604,210.232 282.692,205.619 287.700 C 204.859 288.525,204.004 289.200,203.719 289.200 C 203.433 289.200,203.200 289.359,203.200 289.553 C 203.200 289.748,202.885 290.010,202.500 290.136 C 202.115 290.262,200.990 290.848,200.000 291.439 C 199.010 292.030,197.615 292.848,196.900 293.257 C 195.237 294.208,193.152 295.399,191.500 296.342 C 190.785 296.751,188.790 297.921,187.067 298.942 C 185.344 299.964,183.842 300.800,183.729 300.800 C 183.616 300.800,183.046 301.133,182.462 301.539 C 181.878 301.945,180.410 302.819,179.200 303.480 C 177.990 304.142,176.047 305.249,174.882 305.941 C 173.718 306.634,172.593 307.200,172.382 307.200 C 172.172 307.200,172.000 307.359,172.000 307.553 C 172.000 307.748,171.685 308.010,171.300 308.136 C 170.915 308.262,169.790 308.848,168.800 309.439 C 166.417 310.861,165.525 311.379,159.400 314.899 C 156.540 316.543,152.611 318.813,150.668 319.944 C 148.726 321.075,147.079 322.000,147.009 322.000 C 146.939 322.000,145.697 322.720,144.248 323.600 C 142.800 324.480,141.431 325.200,141.207 325.200 C 140.983 325.200,140.799 325.335,140.797 325.500 C 140.795 325.665,140.390 325.996,139.897 326.236 C 139.404 326.476,137.920 327.284,136.600 328.031 C 132.093 330.582,127.590 329.702,124.870 325.738 C 123.861 324.267,123.805 323.910,123.607 317.600 L 123.400 311.000 106.400 311.000 L 89.400 311.000 89.297 335.900 L 89.194 360.800 190.597 360.800 L 292.000 360.800 292.000 297.049 C 292.000 242.918,292.086 233.094,292.567 231.949 C 293.559 229.590,296.787 227.200,298.980 227.200 L 300.000 227.200 300.000 217.600 L 300.000 208.000 298.795 208.000 C 295.432 208.000,292.000 203.974,292.000 200.028 C 292.000 196.158,295.632 192.000,299.012 192.000 L 300.000 192.000 300.000 182.400 L 300.000 172.800 298.812 172.800 C 296.653 172.800,294.203 171.098,292.821 168.637 C 292.003 167.180,292.000 166.980,292.000 103.188 L 292.000 39.200 190.600 39.200 L 89.200 39.200 89.200 48.000 " stroke="none" fill="#fbfbfb" fill-rule="evenodd"></path><path id="path3" d="M16.000 127.800 L 16.000 182.000 136.800 182.000 L 257.600 182.000 257.600 127.800 L 257.600 73.600 136.800 73.600 L 16.000 73.600 16.000 127.800 M100.798 89.846 C 101.637 90.401,103.102 91.968,104.054 93.328 C 105.007 94.687,106.014 96.070,106.293 96.400 C 106.572 96.730,107.745 98.378,108.900 100.062 C 114.604 108.380,116.623 111.175,116.864 111.091 C 117.146 110.994,120.605 106.233,123.300 102.234 C 124.202 100.895,125.058 99.710,125.202 99.600 C 125.346 99.490,126.429 97.960,127.608 96.200 C 128.788 94.440,129.984 92.766,130.267 92.480 C 130.550 92.195,131.011 91.647,131.291 91.264 C 135.377 85.671,145.538 89.442,145.594 96.572 C 145.606 98.161,143.373 102.810,142.026 104.000 C 141.902 104.110,141.620 104.491,141.400 104.847 C 140.758 105.885,136.676 111.762,136.293 112.200 C 136.100 112.420,134.511 114.670,132.760 117.200 C 131.009 119.730,129.354 122.070,129.083 122.400 C 128.811 122.730,128.175 123.584,127.669 124.297 L 126.749 125.595 129.118 128.897 C 130.421 130.714,132.672 133.910,134.121 136.000 C 135.570 138.090,136.911 139.980,137.100 140.200 C 137.290 140.421,138.590 142.311,139.989 144.400 C 141.388 146.490,142.652 148.290,142.799 148.400 C 144.590 149.747,148.185 156.384,148.312 158.578 C 148.581 163.247,145.494 166.798,140.902 167.100 C 136.697 167.377,135.309 166.244,129.505 157.800 C 128.144 155.820,126.709 153.851,126.315 153.425 C 125.922 152.998,125.600 152.428,125.600 152.158 C 125.600 151.888,125.453 151.607,125.274 151.533 C 125.094 151.460,124.239 150.386,123.374 149.146 C 122.508 147.907,120.720 145.342,119.400 143.446 C 116.494 139.273,117.142 139.204,113.796 144.044 C 112.258 146.268,110.235 149.193,109.299 150.544 C 108.364 151.895,107.371 153.270,107.092 153.600 C 106.638 154.137,103.890 158.053,100.726 162.673 C 95.448 170.377,84.667 167.499,85.320 158.560 C 85.481 156.359,89.062 149.715,90.796 148.400 C 90.941 148.290,91.848 147.030,92.811 145.600 C 93.773 144.170,94.718 142.820,94.911 142.600 C 95.226 142.238,101.224 133.701,105.237 127.902 L 106.827 125.604 104.914 122.864 C 103.861 121.357,101.386 117.801,99.412 114.962 C 97.439 112.123,95.504 109.451,95.112 109.025 C 94.721 108.598,94.400 108.028,94.400 107.758 C 94.400 107.488,94.253 107.207,94.072 107.133 C 93.892 107.060,92.961 105.830,92.002 104.400 C 91.044 102.970,90.156 101.710,90.029 101.600 C 88.828 100.558,87.873 96.597,88.422 94.933 C 90.346 89.104,96.102 86.738,100.798 89.846 M172.374 89.447 C 173.819 90.168,176.000 92.706,176.000 93.668 C 176.000 94.044,176.180 94.464,176.400 94.600 C 177.111 95.040,176.932 159.986,176.215 161.703 C 173.560 168.056,165.531 169.072,161.773 163.530 L 160.600 161.800 160.475 130.000 C 160.407 112.510,160.469 97.046,160.614 95.635 C 161.189 90.042,167.213 86.872,172.374 89.447 M238.400 89.581 C 243.213 92.953,243.854 98.787,239.804 102.343 C 237.403 104.451,236.061 104.800,230.351 104.800 L 225.200 104.800 225.200 132.551 C 225.200 156.002,225.109 160.519,224.615 161.703 C 221.867 168.279,214.118 169.072,209.985 163.200 L 209.000 161.800 208.800 133.400 L 208.600 105.000 203.200 104.791 C 197.496 104.570,196.525 104.327,194.481 102.606 C 190.017 98.850,191.690 90.165,197.107 88.971 C 197.708 88.838,198.380 88.666,198.600 88.587 C 198.820 88.509,207.550 88.479,218.000 88.522 L 237.000 88.600 238.400 89.581 M68.688 89.629 C 73.350 92.187,74.639 98.107,71.366 101.931 C 68.949 104.755,68.729 104.800,57.339 104.800 L 47.200 104.800 47.200 112.168 L 47.200 119.536 56.500 119.668 C 66.465 119.809,66.599 119.837,69.079 122.237 C 72.752 125.792,71.529 132.672,66.800 135.066 C 65.090 135.932,64.557 135.978,56.100 135.989 L 47.200 136.000 47.200 143.400 L 47.200 150.800 57.216 150.800 C 66.438 150.800,67.356 150.863,68.798 151.599 C 74.622 154.570,74.622 163.030,68.798 166.001 C 67.314 166.758,66.436 166.800,52.142 166.800 C 34.739 166.800,34.579 166.771,32.355 163.264 L 31.200 161.443 31.201 127.822 C 31.203 89.054,30.879 91.668,35.979 89.332 C 38.062 88.379,66.884 88.640,68.688 89.629 " stroke="none" fill="#fa7c7c" fill-rule="evenodd"></path><path id="path4" d="M373.200 20.454 C 368.250 21.747,363.390 22.992,362.400 23.222 C 359.756 23.835,358.168 24.238,354.600 25.200 C 351.325 26.083,349.956 26.435,346.800 27.200 C 338.107 29.308,326.286 32.380,326.083 32.584 C 325.611 33.055,327.246 32.693,337.914 29.960 C 344.011 28.398,349.630 26.972,350.400 26.792 C 351.170 26.611,353.240 26.075,355.000 25.600 C 356.760 25.125,358.920 24.563,359.800 24.350 C 360.680 24.137,362.075 23.792,362.900 23.582 C 363.725 23.372,365.120 23.020,366.000 22.800 C 366.880 22.580,368.320 22.220,369.200 22.000 C 370.080 21.780,371.475 21.428,372.300 21.218 C 373.125 21.008,374.520 20.663,375.400 20.450 C 376.280 20.237,378.440 19.691,380.200 19.236 C 381.960 18.782,383.535 18.407,383.700 18.405 C 383.865 18.402,384.000 100.120,384.000 200.000 C 384.000 299.880,383.865 381.598,383.700 381.595 C 383.535 381.593,381.960 381.218,380.200 380.764 C 378.440 380.309,376.280 379.763,375.400 379.550 C 374.520 379.337,373.125 378.992,372.300 378.782 C 371.475 378.572,370.080 378.220,369.200 378.000 C 368.320 377.780,366.880 377.420,366.000 377.200 C 365.120 376.980,363.680 376.620,362.800 376.400 C 361.920 376.180,360.525 375.834,359.700 375.632 C 358.875 375.429,356.760 374.875,355.000 374.400 C 353.240 373.925,351.170 373.389,350.400 373.208 C 349.630 373.028,344.011 371.602,337.914 370.040 C 327.246 367.307,325.611 366.945,326.083 367.416 C 326.258 367.591,336.743 370.340,343.700 372.035 C 344.525 372.236,345.920 372.580,346.800 372.800 C 347.680 373.020,349.075 373.366,349.900 373.568 C 350.725 373.771,352.840 374.325,354.600 374.800 C 357.847 375.676,359.599 376.120,362.300 376.750 C 363.125 376.943,368.116 378.203,373.392 379.550 C 378.667 380.898,383.302 382.000,383.692 382.000 C 384.368 382.000,384.400 373.869,384.400 200.000 L 384.400 18.000 383.300 18.051 C 382.695 18.080,378.150 19.161,373.200 20.454 M321.800 33.544 C 320.480 33.894,319.760 34.230,320.200 34.292 C 320.640 34.354,322.080 34.060,323.400 33.639 C 326.287 32.718,325.169 32.652,321.800 33.544 M317.000 34.800 C 316.267 35.115,316.284 35.146,317.200 35.166 C 317.750 35.178,318.470 35.013,318.800 34.800 C 319.587 34.291,318.184 34.291,317.000 34.800 M311.400 36.101 C 309.640 36.554,308.068 37.122,307.906 37.362 C 307.744 37.603,307.609 66.713,307.606 102.051 C 307.599 172.670,307.777 167.791,305.131 170.225 C 301.889 173.209,297.457 173.090,294.527 169.939 C 292.516 167.777,292.613 170.855,292.400 102.800 L 292.200 39.000 190.600 39.000 L 89.000 39.000 89.000 48.200 L 89.000 57.400 178.400 57.600 C 262.174 57.787,267.880 57.844,269.065 58.492 C 270.542 59.300,271.843 60.852,272.636 62.749 C 273.482 64.772,273.481 190.832,272.635 192.851 C 271.908 194.588,270.943 195.682,269.200 196.744 C 267.603 197.717,267.865 197.897,269.585 197.008 C 270.938 196.308,272.254 194.723,273.036 192.851 C 274.022 190.492,273.846 64.381,272.854 62.197 C 271.938 60.180,269.677 58.170,267.711 57.624 C 266.678 57.337,238.221 57.204,177.700 57.202 L 89.200 57.200 89.200 48.200 L 89.200 39.200 190.600 39.200 L 292.000 39.200 292.000 102.540 C 292.000 149.742,292.119 166.227,292.466 167.240 C 294.815 174.086,303.939 174.750,307.239 168.316 C 307.978 166.875,308.000 164.944,308.000 102.259 C 308.000 41.139,308.037 37.670,308.700 37.393 C 309.420 37.091,310.921 36.711,313.916 36.069 C 315.754 35.675,316.629 35.175,315.367 35.239 C 314.945 35.260,313.160 35.648,311.400 36.101 M15.699 127.699 L 15.800 182.600 136.800 182.600 L 257.800 182.600 257.800 127.800 L 257.800 73.000 136.699 72.899 L 15.597 72.799 15.699 127.699 M257.600 127.800 L 257.600 182.000 136.800 182.000 L 16.000 182.000 16.000 127.800 L 16.000 73.600 136.800 73.600 L 257.600 73.600 257.600 127.800 M94.437 88.672 C 89.122 89.777,86.218 98.295,90.029 101.600 C 90.156 101.710,91.044 102.970,92.002 104.400 C 92.961 105.830,93.892 107.060,94.072 107.133 C 94.253 107.207,94.400 107.488,94.400 107.758 C 94.400 108.028,94.721 108.598,95.112 109.025 C 95.504 109.451,97.439 112.123,99.412 114.962 C 101.386 117.801,103.861 121.357,104.914 122.864 L 106.827 125.604 105.237 127.902 C 101.224 133.701,95.226 142.238,94.911 142.600 C 94.718 142.820,93.773 144.170,92.811 145.600 C 91.848 147.030,90.941 148.290,90.796 148.400 C 89.062 149.715,85.481 156.359,85.320 158.560 C 84.667 167.499,95.448 170.377,100.726 162.673 C 103.890 158.053,106.638 154.137,107.092 153.600 C 107.371 153.270,108.364 151.895,109.299 150.544 C 110.235 149.193,112.258 146.268,113.796 144.044 C 117.142 139.204,116.494 139.273,119.400 143.446 C 120.720 145.342,122.508 147.907,123.374 149.146 C 124.239 150.386,125.094 151.460,125.274 151.533 C 125.453 151.607,125.600 151.888,125.600 152.158 C 125.600 152.428,125.922 152.998,126.315 153.425 C 126.709 153.851,128.144 155.820,129.505 157.800 C 135.309 166.244,136.697 167.377,140.902 167.100 C 145.494 166.798,148.581 163.247,148.312 158.578 C 148.185 156.384,144.590 149.747,142.799 148.400 C 142.652 148.290,141.388 146.490,139.989 144.400 C 138.590 142.311,137.290 140.421,137.100 140.200 C 136.911 139.980,135.570 138.090,134.121 136.000 C 132.672 133.910,130.421 130.714,129.118 128.897 L 126.749 125.595 127.669 124.297 C 128.175 123.584,128.811 122.730,129.083 122.400 C 129.354 122.070,131.009 119.730,132.760 117.200 C 134.511 114.670,136.100 112.420,136.293 112.200 C 136.676 111.762,140.758 105.885,141.400 104.847 C 141.620 104.491,141.902 104.110,142.026 104.000 C 143.373 102.810,145.606 98.161,145.594 96.572 C 145.538 89.442,135.377 85.671,131.291 91.264 C 131.011 91.647,130.550 92.195,130.267 92.480 C 129.984 92.766,128.788 94.440,127.608 96.200 C 126.429 97.960,125.346 99.490,125.202 99.600 C 125.058 99.710,124.202 100.895,123.300 102.234 C 120.605 106.233,117.146 110.994,116.864 111.091 C 116.623 111.175,114.604 108.380,108.900 100.062 C 107.745 98.378,106.572 96.730,106.293 96.400 C 106.014 96.070,105.007 94.687,104.054 93.328 C 101.382 89.512,98.081 87.914,94.437 88.672 M166.444 88.679 C 165.476 88.808,164.487 89.461,162.983 90.965 C 160.202 93.745,160.325 91.831,160.475 130.000 L 160.600 161.800 161.773 163.530 C 165.531 169.072,173.560 168.056,176.215 161.703 C 176.932 159.986,177.111 95.040,176.400 94.600 C 176.180 94.464,176.000 94.044,176.000 93.668 C 176.000 90.796,170.831 88.097,166.444 88.679 M198.600 88.587 C 198.380 88.666,197.708 88.838,197.107 88.971 C 191.690 90.165,190.017 98.850,194.481 102.606 C 196.525 104.327,197.496 104.570,203.200 104.791 L 208.600 105.000 208.800 133.400 L 209.000 161.800 209.985 163.200 C 214.118 169.072,221.867 168.279,224.615 161.703 C 225.109 160.519,225.200 156.002,225.200 132.551 L 225.200 104.800 230.351 104.800 C 236.061 104.800,237.403 104.451,239.804 102.343 C 243.854 98.787,243.213 92.953,238.400 89.581 L 237.000 88.600 218.000 88.522 C 207.550 88.479,198.820 88.509,198.600 88.587 M35.979 89.332 C 33.123 90.640,31.173 93.309,31.256 95.800 C 31.291 96.844,31.367 97.053,31.477 96.400 C 32.018 93.175,34.075 90.547,36.760 89.653 C 39.558 88.721,66.093 89.052,68.207 90.045 C 73.005 92.300,74.195 97.872,70.723 101.826 C 68.656 104.181,68.642 104.184,57.400 104.400 L 47.000 104.600 47.000 112.400 L 47.000 120.200 56.431 120.400 C 65.842 120.600,65.865 120.602,67.482 121.674 C 72.177 124.783,71.703 131.945,66.621 134.677 C 65.621 135.214,63.717 135.365,56.092 135.509 L 46.783 135.685 46.892 143.342 L 47.000 151.000 57.432 151.200 L 67.864 151.400 69.366 152.546 C 74.216 156.248,73.515 163.553,68.093 165.819 C 65.528 166.890,38.132 166.654,35.762 165.540 C 33.627 164.536,32.136 162.523,31.634 159.966 L 31.288 158.200 31.244 159.822 C 31.182 162.116,32.967 164.822,35.281 165.942 C 37.941 167.230,66.292 167.280,68.798 166.001 C 74.622 163.030,74.622 154.570,68.798 151.599 C 67.356 150.863,66.438 150.800,57.216 150.800 L 47.200 150.800 47.200 143.400 L 47.200 136.000 56.100 135.989 C 64.557 135.978,65.090 135.932,66.800 135.066 C 71.529 132.672,72.752 125.792,69.079 122.237 C 66.599 119.837,66.465 119.809,56.500 119.668 L 47.200 119.536 47.200 112.168 L 47.200 104.800 57.339 104.800 C 68.729 104.800,68.949 104.755,71.366 101.931 C 74.639 98.107,73.350 92.187,68.688 89.629 C 66.884 88.640,38.062 88.379,35.979 89.332 M99.705 89.700 C 101.211 90.542,102.956 92.584,106.366 97.496 C 108.162 100.083,109.850 102.470,110.118 102.800 C 110.385 103.130,111.646 104.930,112.921 106.800 C 117.144 112.998,116.619 112.841,119.396 108.735 C 120.487 107.121,121.486 105.710,121.616 105.600 C 121.746 105.490,122.459 104.500,123.200 103.400 C 131.927 90.444,133.192 89.182,137.400 89.231 C 141.960 89.283,144.601 91.964,144.598 96.537 C 144.596 99.663,144.955 98.963,139.142 107.200 C 138.443 108.190,135.980 111.700,133.668 115.000 C 131.356 118.300,128.775 121.917,127.932 123.037 C 126.045 125.546,126.044 125.724,127.910 128.200 C 128.739 129.300,130.302 131.460,131.383 133.000 C 147.220 155.553,147.502 155.982,147.789 157.878 C 148.514 162.675,145.245 166.480,140.400 166.480 C 136.005 166.480,136.315 166.805,124.841 150.200 C 123.625 148.440,122.443 146.795,122.215 146.544 C 121.987 146.293,120.757 144.538,119.481 142.644 C 117.415 139.575,116.400 138.548,116.400 139.525 C 116.400 139.703,116.079 140.198,115.687 140.625 C 115.295 141.051,113.979 142.840,112.763 144.600 C 111.546 146.360,109.468 149.330,108.146 151.200 C 106.823 153.070,104.420 156.490,102.805 158.800 C 97.977 165.707,97.007 166.480,93.163 166.480 C 88.774 166.480,85.865 163.474,85.887 158.962 C 85.900 156.254,86.126 155.870,95.407 142.800 C 97.516 139.830,100.310 135.870,101.616 134.000 C 102.922 132.130,104.704 129.610,105.576 128.400 C 107.810 125.299,108.426 126.808,100.191 115.200 C 98.085 112.230,95.445 108.450,94.325 106.800 C 93.205 105.150,91.972 103.440,91.584 103.000 C 86.516 97.254,89.261 89.238,96.305 89.210 C 97.683 89.204,99.213 89.425,99.705 89.700 M171.930 89.825 C 173.776 90.746,175.405 92.949,175.934 95.241 C 176.596 98.108,176.594 157.668,175.932 160.323 C 174.152 167.460,165.538 168.923,161.970 162.693 L 161.000 161.000 160.875 130.000 C 160.737 95.814,160.775 94.816,162.289 92.481 C 164.255 89.449,168.714 88.221,171.930 89.825 M238.000 90.056 C 242.367 92.718,243.253 98.133,239.895 101.646 C 237.940 103.692,236.378 104.127,230.300 104.318 L 224.800 104.491 224.790 131.545 C 224.780 159.469,224.694 161.119,223.125 163.421 C 220.103 167.854,213.108 167.532,210.470 162.839 C 209.600 161.291,209.600 161.291,209.594 133.346 C 209.591 117.975,209.456 105.198,209.294 104.952 C 209.113 104.675,206.933 104.427,203.600 104.304 C 200.630 104.194,197.660 103.889,197.000 103.626 C 190.992 101.237,190.753 92.892,196.600 89.666 C 198.340 88.706,236.373 89.065,238.000 90.056 M297.604 192.526 C 296.836 192.771,295.476 193.703,294.580 194.599 C 287.397 201.782,298.017 212.689,305.539 205.853 C 311.728 200.229,305.621 189.973,297.604 192.526 M302.651 193.038 C 307.873 195.191,309.210 201.019,305.425 205.131 C 301.397 209.508,294.535 207.656,292.782 201.720 C 291.163 196.240,297.306 190.836,302.651 193.038 M88.984 198.100 C 88.879 198.375,88.839 211.020,88.896 226.200 L 89.000 253.800 106.154 253.904 C 118.485 253.979,123.461 253.881,123.854 253.555 C 124.273 253.207,124.400 251.630,124.400 246.746 C 124.400 239.955,124.473 239.642,126.600 237.252 C 127.612 236.115,127.655 235.989,126.877 236.452 C 124.649 237.776,124.216 239.272,124.000 246.400 L 123.800 253.000 106.497 253.104 L 89.194 253.209 89.297 225.704 L 89.400 198.200 178.600 197.999 L 267.800 197.797 178.487 197.699 C 107.333 197.620,89.136 197.702,88.984 198.100 M297.000 227.981 C 295.044 228.867,293.447 230.510,292.621 232.487 C 292.068 233.810,292.000 240.963,292.000 297.387 L 292.000 360.800 190.600 360.800 L 89.200 360.800 89.200 335.796 L 89.200 310.792 106.500 310.896 L 123.800 311.000 124.000 317.600 C 124.182 323.597,124.284 324.335,125.120 325.680 C 126.036 327.152,128.629 329.104,129.077 328.657 C 129.205 328.528,128.881 328.255,128.355 328.051 C 127.297 327.641,125.543 325.877,124.849 324.526 C 124.572 323.987,124.400 321.195,124.400 317.240 C 124.400 311.310,124.342 310.797,123.626 310.414 C 123.128 310.147,116.863 310.000,106.034 310.000 L 89.215 310.000 88.997 310.900 C 88.877 311.395,88.829 322.870,88.890 336.400 L 89.000 361.000 190.600 361.000 L 292.200 361.000 292.400 297.200 C 292.593 235.652,292.627 233.346,293.356 231.877 C 296.147 226.258,304.240 226.442,306.848 232.183 C 307.551 233.730,307.583 236.586,307.597 298.000 C 307.606 333.310,307.744 362.397,307.906 362.638 C 308.250 363.150,315.526 365.007,315.865 364.669 C 315.991 364.542,315.578 364.334,314.947 364.206 C 314.316 364.077,313.247 363.798,312.572 363.586 C 311.896 363.374,311.049 363.200,310.690 363.200 C 310.331 363.200,309.579 362.991,309.019 362.736 L 308.000 362.272 308.000 297.748 L 308.000 233.224 307.166 231.712 C 304.942 227.682,300.920 226.206,297.000 227.981 M130.905 235.087 C 131.514 235.179,132.414 235.177,132.905 235.082 C 133.397 234.987,132.900 234.911,131.800 234.914 C 130.700 234.917,130.297 234.995,130.905 235.087 M135.966 236.408 C 137.157 237.065,138.201 237.532,138.287 237.447 C 138.495 237.238,134.818 235.198,134.250 235.207 C 134.002 235.211,134.775 235.752,135.966 236.408 M138.800 237.743 C 138.800 237.990,143.497 240.800,143.910 240.800 C 144.257 240.800,143.080 240.002,140.700 238.624 C 139.655 238.019,138.800 237.622,138.800 237.743 M144.400 241.121 C 144.400 241.333,144.715 241.610,145.100 241.736 C 145.485 241.862,146.610 242.448,147.600 243.039 C 148.590 243.630,149.940 244.425,150.600 244.805 C 151.260 245.186,153.420 246.439,155.400 247.589 C 159.683 250.078,161.547 251.041,161.000 250.483 C 160.780 250.259,159.925 249.698,159.100 249.238 C 158.275 248.777,157.015 248.063,156.300 247.651 C 155.585 247.240,153.200 245.867,151.000 244.601 C 148.800 243.336,146.415 241.948,145.700 241.517 C 144.985 241.087,144.400 240.908,144.400 241.121 M161.820 251.168 C 162.484 251.812,169.301 255.633,169.474 255.459 C 169.566 255.367,168.417 254.614,166.921 253.785 C 165.424 252.956,163.722 251.946,163.138 251.539 C 162.036 250.772,161.155 250.524,161.820 251.168 M170.000 255.748 C 170.000 255.866,171.125 256.625,172.500 257.435 C 174.841 258.816,175.583 259.245,178.900 261.144 C 179.615 261.553,181.146 262.449,182.301 263.135 C 185.111 264.801,187.092 265.787,186.600 265.275 C 186.380 265.045,183.140 263.114,179.400 260.982 C 175.660 258.850,172.015 256.752,171.300 256.320 C 170.585 255.888,170.000 255.631,170.000 255.748 M139.487 259.975 C 139.240 263.784,138.915 264.738,137.251 266.536 C 134.800 269.185,138.869 268.979,84.400 269.200 L 35.000 269.400 34.894 282.100 C 34.836 289.085,34.836 294.843,34.894 294.895 C 34.952 294.947,57.438 295.082,84.863 295.195 L 134.726 295.400 136.263 296.626 C 138.453 298.372,139.254 300.252,139.502 304.227 C 139.618 306.082,139.822 307.599,139.956 307.598 C 140.301 307.594,147.431 303.555,156.200 298.397 C 156.860 298.008,159.830 296.300,162.800 294.600 C 165.770 292.900,168.740 291.192,169.400 290.804 C 171.354 289.656,180.469 284.376,182.184 283.399 C 184.689 281.971,184.751 282.054,178.600 278.578 C 178.160 278.329,177.125 277.737,176.300 277.263 C 175.475 276.788,174.215 276.064,173.500 275.654 C 172.785 275.244,170.220 273.747,167.800 272.328 C 165.380 270.909,162.410 269.198,161.200 268.526 C 159.990 267.855,156.750 265.994,154.000 264.392 C 144.140 258.648,140.196 256.404,139.959 256.402 C 139.827 256.401,139.614 258.009,139.487 259.975 M141.743 258.200 C 142.073 258.530,142.626 258.800,142.971 258.800 C 143.317 258.800,143.600 258.959,143.600 259.153 C 143.600 259.348,143.915 259.607,144.300 259.729 C 144.987 259.946,147.206 261.205,147.600 261.601 C 147.710 261.711,148.340 262.071,149.000 262.400 C 149.660 262.729,150.290 263.089,150.400 263.199 C 150.794 263.595,153.013 264.854,153.700 265.071 C 154.085 265.193,154.400 265.452,154.400 265.647 C 154.400 265.841,154.760 266.000,155.200 266.000 C 155.640 266.000,156.000 266.145,156.000 266.321 C 156.000 266.498,156.897 267.083,157.994 267.621 C 159.090 268.160,159.990 268.735,159.994 268.900 C 159.997 269.065,160.175 269.200,160.388 269.200 C 160.602 269.200,162.090 269.976,163.694 270.925 C 165.299 271.873,167.194 272.907,167.906 273.222 C 168.618 273.538,169.200 273.931,169.200 274.098 C 169.200 274.264,169.478 274.400,169.817 274.400 C 170.156 274.400,170.820 274.760,171.292 275.200 C 171.764 275.640,172.387 276.000,172.675 276.000 C 172.964 276.000,173.200 276.180,173.200 276.400 C 173.200 276.620,173.560 276.800,174.000 276.800 C 174.440 276.800,174.800 276.959,174.800 277.153 C 174.800 277.348,175.115 277.607,175.500 277.729 C 176.187 277.946,178.406 279.205,178.800 279.601 C 178.910 279.711,179.450 280.036,180.000 280.323 C 182.335 281.541,182.644 281.933,181.776 282.578 C 181.349 282.895,180.550 283.390,180.000 283.677 C 179.450 283.964,178.910 284.289,178.800 284.399 C 178.406 284.795,176.187 286.054,175.500 286.271 C 175.115 286.393,174.800 286.652,174.800 286.847 C 174.800 287.041,174.440 287.200,174.000 287.200 C 173.560 287.200,173.200 287.380,173.200 287.600 C 173.200 287.820,172.964 288.000,172.675 288.000 C 172.387 288.000,171.764 288.360,171.292 288.800 C 170.820 289.240,170.156 289.600,169.817 289.600 C 169.478 289.600,169.200 289.759,169.200 289.953 C 169.200 290.148,168.885 290.407,168.500 290.529 C 167.815 290.746,165.596 292.004,165.200 292.400 C 165.090 292.510,164.280 292.974,163.400 293.432 C 160.284 295.053,156.197 297.336,156.000 297.567 C 155.890 297.695,155.080 298.174,154.200 298.630 C 152.127 299.706,150.651 300.549,150.400 300.801 C 150.290 300.911,149.660 301.271,149.000 301.600 C 148.340 301.929,147.710 302.289,147.600 302.399 C 147.206 302.795,144.987 304.054,144.300 304.271 C 143.915 304.393,143.600 304.652,143.600 304.847 C 143.600 305.041,143.375 305.204,143.100 305.209 C 142.825 305.214,142.150 305.570,141.600 306.000 C 140.087 307.183,140.000 307.052,140.000 303.584 C 140.000 299.929,139.260 297.995,137.199 296.260 C 134.421 293.923,136.242 294.000,83.727 294.000 L 35.600 294.000 35.600 282.000 L 35.600 270.000 84.576 270.000 C 116.796 270.000,133.637 269.863,133.800 269.600 C 133.936 269.380,134.364 269.200,134.752 269.200 C 137.370 269.200,140.000 264.866,140.000 260.551 C 140.000 257.447,140.421 256.879,141.743 258.200 M187.200 265.748 C 187.200 266.061,192.069 268.864,192.268 268.665 C 192.361 268.573,191.393 267.890,190.118 267.149 C 187.371 265.551,187.200 265.469,187.200 265.748 M192.800 268.943 C 192.800 269.275,197.673 272.060,197.884 271.849 C 197.986 271.748,197.648 271.446,197.134 271.177 C 196.620 270.909,195.435 270.248,194.500 269.707 C 193.565 269.166,192.800 268.822,192.800 268.943 M198.400 272.157 C 198.400 272.270,199.525 273.017,200.900 273.819 C 204.752 276.064,205.821 277.007,206.746 278.975 C 208.855 283.461,207.122 286.710,200.674 290.365 C 199.973 290.762,198.590 291.570,197.600 292.161 C 196.610 292.752,195.485 293.338,195.100 293.464 C 194.715 293.590,194.400 293.867,194.400 294.079 C 194.400 294.292,194.985 294.113,195.700 293.682 C 196.415 293.251,198.530 292.038,200.400 290.987 C 210.269 285.438,210.709 279.140,201.600 273.797 C 198.319 271.872,198.400 271.914,198.400 272.157 M191.325 295.731 C 188.585 297.406,188.052 298.053,190.600 296.609 C 193.157 295.160,194.282 294.392,193.789 294.431 C 193.575 294.447,192.466 295.032,191.325 295.731 M182.000 301.081 C 176.308 304.437,175.010 305.194,172.200 306.800 C 171.430 307.240,170.125 307.988,169.300 308.462 C 168.475 308.935,167.170 309.665,166.400 310.083 C 165.630 310.501,164.550 311.211,164.000 311.661 L 163.000 312.479 164.400 311.689 C 165.585 311.021,169.265 308.909,175.100 305.549 C 175.815 305.137,177.030 304.440,177.800 304.000 C 178.570 303.560,179.875 302.812,180.700 302.337 C 181.525 301.863,182.560 301.271,183.000 301.022 C 188.052 298.167,188.997 297.538,188.100 297.631 C 187.935 297.648,185.190 299.201,182.000 301.081 M160.125 313.731 C 157.168 315.539,156.958 315.975,159.800 314.405 C 162.347 312.999,163.219 312.379,162.580 312.431 C 162.371 312.447,161.266 313.032,160.125 313.731 M150.600 319.231 C 147.300 321.182,144.150 323.024,143.600 323.324 C 143.050 323.624,141.925 324.259,141.100 324.735 C 140.275 325.211,138.925 325.989,138.100 326.465 C 137.275 326.941,136.094 327.590,135.475 327.907 C 134.856 328.224,134.435 328.568,134.538 328.672 C 134.642 328.775,137.128 327.473,140.063 325.777 C 142.999 324.082,146.390 322.151,147.600 321.486 C 148.810 320.822,150.250 319.971,150.800 319.596 C 151.350 319.221,151.980 318.843,152.200 318.757 C 152.976 318.452,157.200 315.921,157.200 315.762 C 157.200 315.387,156.303 315.858,150.600 319.231 M130.707 329.090 C 131.426 329.179,132.506 329.177,133.107 329.086 C 133.708 328.995,133.120 328.922,131.800 328.924 C 130.480 328.926,129.988 329.001,130.707 329.090 M317.000 365.200 C 318.184 365.709,319.587 365.709,318.800 365.200 C 318.470 364.987,317.750 364.822,317.200 364.834 C 316.284 364.854,316.267 364.885,317.000 365.200 M320.200 366.000 C 320.640 366.189,321.360 366.344,321.800 366.344 L 322.600 366.344 321.800 366.000 C 321.360 365.811,320.640 365.656,320.200 365.656 L 319.400 365.656 320.200 366.000 M323.400 366.800 C 323.840 366.989,324.560 367.144,325.000 367.144 L 325.800 367.144 325.000 366.800 C 324.560 366.611,323.840 366.456,323.400 366.456 L 322.600 366.456 323.400 366.800 " stroke="none" fill="#9b4b4a" fill-rule="evenodd"></path></g></svg>